<?xml version="1.0" encoding="UTF-8" standalone="no"?>
<svg
   version="1.1"
   viewBox="0.00 0.00 150.00 150.00"
   id="svg8"
   sodipodi:docname="vetor_logo (10).svg"
   inkscape:export-filename="vetor_logo (10).png"
   inkscape:export-xdpi="64"
   inkscape:export-ydpi="64"
   inkscape:version="1.3.2 (091e20e, 2023-11-25)"
   xmlns:inkscape="http://www.inkscape.org/namespaces/inkscape"
   xmlns:sodipodi="http://sodipodi.sourceforge.net/DTD/sodipodi-0.dtd"
   xmlns="http://www.w3.org/2000/svg"
   xmlns:svg="http://www.w3.org/2000/svg">
  <defs
     id="defs8" />
  <sodipodi:namedview
     id="namedview8"
     pagecolor="#ffffff"
     bordercolor="#000000"
     borderopacity="0.25"
     inkscape:showpageshadow="2"
     inkscape:pageopacity="0.0"
     inkscape:pagecheckerboard="0"
     inkscape:deskcolor="#d1d1d1"
     inkscape:zoom="2.9368502"
     inkscape:cx="61.119904"
     inkscape:cy="68.951424"
     inkscape:window-width="1440"
     inkscape:window-height="871"
     inkscape:window-x="1440"
     inkscape:window-y="0"
     inkscape:window-maximized="1"
     inkscape:current-layer="svg8" />
  <path
     fill="#355585"
     d="   M 127.82 55.72   L 127.84 68.81   L 127.77 69.03   L 127.54 68.99   L 123.47 66.78   L 123.25 66.58   L 123.16 66.26   L 123.19 52.98   L 122.39 51.58   L 75.48 24.57   L 75.08 24.46   L 74.68 24.64   L 70.79 27.45   L 28.34 51.79   L 27.96 52.15   L 27.83 52.67   L 27.83 65.76   L 27.62 66.14   L 23.41 68.55   L 23.23 68.59   L 23.17 68.41   L 23.20 55.50   L 23.03 55.02   L 22.53 55.11   L 10.50 61.83   L 10.29 61.74   L 10.28 61.71   L 10.18 57.04   L 10.36 56.72   L 39.84 39.47   L 40.45 38.88   L 40.63 38.07   L 40.39 27.54   L 40.53 27.11   L 40.96 26.97   L 52.76 27.15   L 53.20 27.31   L 53.32 27.76   L 53.07 31.26   L 53.08 31.34   L 53.48 31.51   L 74.76 19.27   L 76.01 19.27   L 139.27 56.22   L 140.18 57.74   L 140.29 61.02   L 140.10 61.66   L 139.43 61.54   L 128.43 55.36   L 127.97 55.28   L 127.82 55.72   Z"
     id="path2" />
  <path
     fill="#e4530a"
     d="   M 30.68 104.50   L 30.68 53.75   L 30.85 53.47   L 72.33 30.34   L 72.82 30.63   L 72.82 127.63   L 72.68 127.90   L 72.33 127.92   L 30.85 104.78   L 30.70 104.62   L 30.68 104.50   Z   M 49.38 60.13   L 49.83 60.57   L 34.69 100.72   L 34.82 101.13   L 34.84 101.14   L 67.50 118.59   L 67.61 118.63   L 68.00 118.29   L 68.00 105.96   L 67.77 105.63   L 43.13 97.53   L 42.92 97.07   L 67.76 40.70   L 67.33 40.24   L 67.29 40.26   L 35.23 58.06   L 35.21 58.07   L 35.05 58.36   L 35.07 65.42   L 35.07 65.47   L 35.54 65.73   L 49.38 60.13   Z"
     id="path3" />
  <path
     fill="#e4530a"
     d="   M 77.00 127.37   L 77.00 30.88   L 77.10 30.66   L 77.46 30.61   L 118.84 53.41   L 118.91 53.46   L 119.00 53.68   L 119.00 104.58   L 118.84 104.85   L 77.46 127.64   L 77.23 127.66   L 77.00 127.37   Z   M 89.81 83.15   L 89.88 82.94   L 90.15 82.81   L 107.04 82.81   L 107.20 82.85   L 107.38 83.15   L 107.34 105.50   L 107.38 105.65   L 107.85 105.80   L 114.66 101.79   L 114.83 101.50   L 114.82 55.99   L 114.64 55.69   L 81.68 37.73   L 81.39 37.72   L 81.18 38.03   L 81.17 120.24   L 81.68 120.53   L 89.50 115.95   L 89.67 115.66   L 89.81 83.15   Z"
     id="path4" />
  <path
     fill="#ffffff"
     d="   M 89.81 83.15   L 89.67 115.66   L 89.50 115.95   L 81.68 120.53   L 81.17 120.24   L 81.18 38.03   L 81.68 37.73   L 114.64 55.69   L 114.82 55.99   L 114.83 101.50   L 114.66 101.79   L 107.85 105.80   L 107.34 105.53   L 107.34 105.50   L 107.38 83.15   L 107.07 82.81   L 107.04 82.81   L 90.15 82.81   L 89.81 83.15   Z   M 90.37 53.24   L 90.13 53.17   L 89.54 53.73   L 89.53 75.07   L 89.96 75.62   L 90.09 75.63   L 107.05 75.63   L 107.24 75.60   L 107.61 75.07   L 107.65 62.92   L 107.64 62.86   L 107.36 62.43   L 90.37 53.24   Z"
     id="path5" />
  <path
     fill="#ffffff"
     d="   M 49.38 60.13   L 35.54 65.73   L 35.07 65.42   L 35.05 58.36   L 35.12 58.16   L 35.23 58.06   L 67.29 40.26   L 67.63 40.27   L 67.76 40.70   L 42.92 97.07   L 43.13 97.53   L 67.77 105.63   L 68.00 105.96   L 68.00 118.29   L 67.50 118.59   L 34.84 101.14   L 34.70 101.00   L 34.69 100.72   L 49.83 60.57   L 49.78 60.25   L 49.38 60.13   Z"
     id="path6" />
  <path
     fill="#e4530a"
     d="   M 90.37 53.24   L 107.36 62.43   L 107.65 62.92   L 107.61 75.07   L 107.05 75.63   L 90.09 75.63   L 89.74 75.51   L 89.53 75.07   L 89.54 53.73   L 90.37 53.24   Z"
     id="path7" />
  <path
     fill="#355585"
     d="   M 123.17 106.40   L 123.18 71.22   L 123.33 70.93   L 123.74 70.91   L 127.65 73.19   L 127.75 73.28   L 127.83 73.51   L 127.83 110.29   L 127.65 110.61   L 75.71 141.07   L 75.33 141.07   L 23.35 110.77   L 23.17 110.45   L 23.17 73.04   L 23.20 72.90   L 23.35 72.72   L 27.40 70.29   L 27.96 70.61   L 27.81 106.49   L 28.00 106.81   L 75.17 133.99   L 75.53 133.99   L 122.98 106.72   L 123.06 106.66   L 123.17 106.40   Z"
     id="path8" />
</svg>
